<?xml version="1.0" encoding="iso-8859-1"?><!-- Generator: Adobe Illustrator 21.1.0, SVG Export Plug-In . SVG Version: 6.00 Build 0)  --><svg xmlns="http://www.w3.org/2000/svg" xmlns:xlink="http://www.w3.org/1999/xlink" viewBox="0 0 30 30" width="120px" height="120px"><g><path d="M11.514,11.469h-1.75v3.691h1.743c1.258,0,1.996-0.656,1.996-1.832C13.503,12.119,12.785,11.469,11.514,11.469z"/><path d="M24,4H6C4.895,4,4,4.895,4,6v18c0,1.105,0.895,2,2,2h18c1.105,0,2-0.895,2-2V6C26,4.895,25.105,4,24,4z M11.903,16.624h-2.14v3.233H8V9.993h3.979c1.969,0,3.315,1.347,3.315,3.336C15.294,15.284,13.899,16.624,11.903,16.624z M19.194,20.007c-1.866,0-3.042-0.807-3.172-2.167h1.675c0.164,0.554,0.69,0.882,1.538,0.882c0.854,0,1.449-0.376,1.449-0.93c0-0.424-0.321-0.69-1.032-0.848l-1.326-0.308c-1.436-0.328-2.112-0.991-2.112-2.119c0-1.354,1.23-2.29,2.994-2.29c1.777,0,2.892,0.786,3.015,2.146h-1.593c-0.123-0.526-0.622-0.861-1.415-0.861c-0.772,0-1.354,0.369-1.354,0.909c0,0.424,0.355,0.684,1.107,0.854l1.319,0.301c1.429,0.321,2.092,0.937,2.092,2.037C22.379,19.05,21.06,20.007,19.194,20.007z"/></g></svg>